#N canvas -8 -8 1366 685 12;
#X obj 56 134 mtof;
#X obj 95 445 *~;
#N canvas 704 98 450 300 envelope 0;
#X msg 193 127 1 5;
#X obj 193 162 line~;
#X obj 236 133 pack 0 500;
#X obj 236 107 del 50;
#X obj 193 48 inlet;
#X obj 192 245 outlet~;
#X obj 314 97 inlet;
#X obj 192 193 *~;
#X obj 192 219 *~;
#X connect 0 0 1 0;
#X connect 1 0 7 0;
#X connect 1 0 7 1;
#X connect 2 0 1 0;
#X connect 3 0 2 0;
#X connect 4 0 0 0;
#X connect 4 0 3 0;
#X connect 6 0 2 1;
#X connect 7 0 8 0;
#X connect 7 0 8 1;
#X connect 8 0 5 0;
#X restore 423 241 pd envelope;
#X obj 56 160 phasor~;
#N canvas 633 0 450 238 envelope 0;
#X msg 193 127 1 5;
#X obj 193 162 line~;
#X obj 236 107 del 50;
#X obj 193 48 inlet;
#X obj 192 245 outlet~;
#X obj 314 97 inlet;
#X obj 192 193 *~;
#X obj 192 219 *~;
#X obj 236 133 pack 0 500;
#X connect 0 0 1 0;
#X connect 1 0 6 0;
#X connect 1 0 6 1;
#X connect 2 0 8 0;
#X connect 3 0 0 0;
#X connect 3 0 2 0;
#X connect 5 0 8 1;
#X connect 6 0 7 0;
#X connect 6 0 7 1;
#X connect 7 0 4 0;
#X connect 8 0 1 0;
#X restore 326 192 pd envelope;
#X obj 201 258 *~ 5000;
#X obj 56 305 vcf~ 1;
#X obj 10 483 *~;
#X obj 400 164 * 25;
#X obj 193 603 tgl 15 0 empty empty Wah-wah_On/Off 17 7 0 10 -262144
-1 -1 0 1;
#X obj 126 768 *~ 0;
#X obj 8 765 *~ 1;
#X msg 106 701 1;
#X msg 158 699 0;
#X obj 114 663 t b;
#X msg 211 703 1;
#X msg 271 708 0;
#X obj 223 668 t b;
#X obj 193 626 route 0 1;
#X obj 37 680 *~;
#X obj 47 645 osc~ 5;
#X obj 7 907 dac~;
#X text 212 757 https://youtu.be/_qImZOcHz2U;
#X obj 123 869 vline~;
#X msg 123 844 \$1 5;
#X obj 43 593 vline~;
#X msg 43 568 \$1 5;
#X obj 331 827 hsl 128 15 0 1 0 0 empty \$0-volume Volume -2 21 0 10
-262144 -1 -1 0 1;
#X obj 95 222 vsl 15 30 1 10 0 0 empty \$0-acidfilterresonance Resonance
0 -9 0 10 -262144 -1 -1 0 1;
#X obj 326 147 vsl 15 30 500 7000 0 0 empty \$0-acidfilterdecaytime
Filter_Decay_Time 0 -9 0 10 -262144 -1 -1 0 1;
#X floatatom 356 163 5 0 0 0 - - -;
#X obj 512 176 vsl 15 30 5000 70000 0 0 empty \$0-acidampdecaytime
Amp_Decay_Time 0 -9 0 10 -262144 -1 -1 0 1;
#X floatatom 512 214 10 0 0 0 - - -;
#X obj 7 840 *~;
#X floatatom 95 268 5 0 0 0 - - -;
#X obj 56 36 r \$0-notes;
#X obj 70 484 hsl 128 15 0 127 0 0 empty \$0-velocity Velocity -2 -8
0 10 -262144 -1 -1 0 1;
#X obj 55 526 / 50;
#X obj 225 834 / 10;
#X floatatom 56 85 5 0 0 0 - - -;
#X obj 466 134 s \$0-displaynotes;
#X obj 56 108 t f b b f, f 59;
#X connect 0 0 3 0;
#X connect 1 0 7 0;
#X connect 2 0 1 1;
#X connect 3 0 6 0;
#X connect 4 0 5 0;
#X connect 5 0 6 1;
#X connect 6 1 1 0;
#X connect 7 0 11 0;
#X connect 7 0 19 0;
#X connect 8 0 4 1;
#X connect 9 0 18 0;
#X connect 10 0 33 0;
#X connect 11 0 33 0;
#X connect 12 0 11 1;
#X connect 13 0 10 1;
#X connect 14 0 12 0;
#X connect 14 0 13 0;
#X connect 15 0 10 1;
#X connect 16 0 11 1;
#X connect 17 0 15 0;
#X connect 17 0 16 0;
#X connect 18 0 14 0;
#X connect 18 1 17 0;
#X connect 19 0 10 0;
#X connect 20 0 19 1;
#X connect 23 0 33 1;
#X connect 24 0 23 0;
#X connect 25 0 7 1;
#X connect 26 0 25 0;
#X connect 27 0 38 0;
#X connect 28 0 34 0;
#X connect 29 0 30 0;
#X connect 30 0 8 0;
#X connect 31 0 32 0;
#X connect 32 0 2 1;
#X connect 33 0 21 0;
#X connect 33 0 21 1;
#X connect 34 0 6 2;
#X connect 35 0 39 0;
#X connect 36 0 37 0;
#X connect 37 0 26 0;
#X connect 38 0 24 0;
#X connect 39 0 41 0;
#X connect 41 0 0 0;
#X connect 41 1 4 0;
#X connect 41 2 2 0;
#X connect 41 3 40 0;
